<svg xmlns="http://www.w3.org/2000/svg" viewBox="0 0 858.72 251.92"><g data-name="Camada 2"><g data-name="Camada 1"><path d="M147.66 133V51.33h35.12q27 0 43.22 3.55t25.16 13.17A47.67 47.67 0 0 1 263 90.84q2.86 13.17 2.87 35.8c0 2.17 0 4.27-.07 6.32h55.7c.05-2.08.07-4.18.07-6.32q0-37.15-7.59-61.3T288.65 27q-17.73-14.17-42.89-19.74T182.1 1.69H92.28V133zm-55.38 83v36h88.47q38.16 0 63.83-5.91T288 225.75a74.11 74.11 0 0 0 10-9.75z"/><path d="M342.31 215.96L327.99 251.92 382.02 251.92 396.17 215.96 342.31 215.96z"/><path d="M428.44 132.96L454.96 65.51 481.48 132.96 537.63 132.96 484.34 0 428.29 0 375.35 132.96 428.44 132.96z"/><path d="M513.75 215.96L527.91 251.92 585.32 251.92 570.9 215.96 513.75 215.96z"/><path d="M732.76 132.96L813.26 1.69 756.19 1.69 687.3 114.48 618.41 1.69 558.98 1.69 639.49 132.96 732.76 132.96z"/><path d="M658.6 215.96H713.64V251.93H658.6z"/><path d="M36.38 152q0 1.26-2.22 1.26H4.74c-.34 0-.51.12-.51.37v18.93q0 .36.51.36h25.18c1.42 0 2.13.41 2.13 1.24s-.71 1.29-2.13 1.29H4.74c-.34 0-.51.1-.51.31v20.61c0 .85-.69 1.27-2.06 1.27S0 197.17 0 196.33V152c0-.85.74-1.27 2.22-1.27h31.94c1.48-.05 2.22.37 2.22 1.27zm47.46 44.33q0 1.26-2.16 1.26t-2.07-1.26V152c0-.85.69-1.27 2.07-1.27s2.16.42 2.16 1.27zm83.75-8.97q0 4.33-5.09 7.37a23.46 23.46 0 0 1-12.25 3.05h-5.94a24.47 24.47 0 0 1-10.94-2.36q-4.78-2.34-6-6c-.34-.84.2-1.34 1.61-1.5s2.26.16 2.53 1a8.53 8.53 0 0 0 4.6 4.55 18.25 18.25 0 0 0 8.23 1.78h6a17.4 17.4 0 0 0 9.19-2.32q3.84-2.32 3.84-5.58v-2.17q0-3.49-3.75-6.18a19.22 19.22 0 0 0-9.55-3.22l-6.25-.67a24.63 24.63 0 0 1-12.09-4.1q-4.74-3.37-4.74-7.9V161q0-4.34 5.12-7.42a23.44 23.44 0 0 1 12.3-3.07h6a24.45 24.45 0 0 1 11.2 2.49q4.86 2.47 6 6.33c.2.85-.41 1.33-1.83 1.45s-2.24-.18-2.44-1q-.82-2.92-4.47-4.8a18.38 18.38 0 0 0-8.54-1.89h-6a17.56 17.56 0 0 0-9.24 2.33c-2.58 1.56-3.86 3.43-3.86 5.61v2.12c0 2.38 1.25 4.47 3.75 6.24a19.67 19.67 0 0 0 9.54 3.27l6.25.67a24.67 24.67 0 0 1 12.1 4.09c3.15 2.25 4.74 4.86 4.74 7.83zm47.46 8.97c0 .84-.72 1.26-2.17 1.26s-2.06-.42-2.06-1.26V152c0-.85.68-1.27 2.06-1.27s2.17.42 2.17 1.27zm83.74-8.93q0 4.29-5.09 7.33a23.4 23.4 0 0 1-12.24 3.05h-5.95a23.4 23.4 0 0 1-12.24-3.05q-5.08-3-5.09-7.33v-26.47q0-4.27 5.09-7.33a23.49 23.49 0 0 1 12.24-3h5.95a23.49 23.49 0 0 1 12.24 3q5.08 3.06 5.09 7.33zm-4.23 0v-26.46q0-3.25-3.86-5.55a17.69 17.69 0 0 0-9.22-2.3h-6a17.67 17.67 0 0 0-9.22 2.3c-2.58 1.53-3.86 3.38-3.86 5.55v26.51c0 2.14 1.28 4 3.86 5.5a17.67 17.67 0 0 0 9.22 2.29h6a17.69 17.69 0 0 0 9.22-2.24q3.85-2.35 3.86-5.55zm87.97-35.4c0 .84-.7 1.26-2.11 1.26H364.9c-.34 0-.51.12-.51.37v42.75c0 .84-.69 1.26-2.06 1.26s-2.17-.42-2.17-1.26v-42.8c0-.25-.17-.37-.5-.37h-15.52c-1.41 0-2.12-.42-2.12-1.26s.71-1.27 2.11-1.27h36.29c1.41 0 2.11.42 2.11 1.32zM462 196.36c0 .82-.74 1.23-2.21 1.23h-31.91q-2.22 0-2.22-1.26V152c0-.85.74-1.27 2.22-1.27h31.95c1.47 0 2.21.42 2.21 1.27s-.74 1.26-2.22 1.26H430.4c-.34 0-.5.12-.5.37v18.93c0 .24.16.36.5.36h25.19c1.41 0 2.12.41 2.12 1.24s-.71 1.29-2.12 1.29H430.4c-.34 0-.5.11-.5.31v19c0 .2.16.3.5.3h29.42c1.48 0 2.18.43 2.18 1.3zM545.79 165q0 3.57-3.63 6.34a20.26 20.26 0 0 1-9.27 3.68c-.34.08-.44.23-.3.43l13.2 20.41c.53.8.14 1.34-1.2 1.62s-2.22.07-2.69-.78l-13.67-20.94a.76.76 0 0 0-.71-.35h-17.6q-.51 0-.51.36v20.45c0 .84-.73 1.26-2.17 1.26s-2.07-.42-2.07-1.26v-44.28c0-.84.71-1.26 2.12-1.26h21.16a23.46 23.46 0 0 1 12.25 3q5.09 3 5.09 7.34zm-4.24 0v-3.93q0-3.27-3.85-5.57a17.73 17.73 0 0 0-9.23-2.3h-18.56c-.33 0-.5.12-.5.37v18.93c0 .24.17.36.5.36h18.56a17.73 17.73 0 0 0 9.23-2.3q3.85-2.29 3.85-5.56zm95.03 31c.41.83-.1 1.37-1.52 1.62s-2.23-.05-2.63-.9l-4.25-8.5c-.07-.24-.3-.36-.71-.36h-29.6c-.41 0-.64.11-.71.34l-4.16 8.48c-.4.85-1.26 1.16-2.58.91s-1.89-.79-1.48-1.62l21.77-44.32a2 2 0 0 1 2-1 2.22 2.22 0 0 1 2.12.91zm-9.93-11L613 157a.6.6 0 0 0-.4-.12.43.43 0 0 0-.27.1l-13.62 27.93c-.07.25.07.37.4.37h27.1c.37.01.51-.1.44-.34zm93.68-20q0 4.29-5.11 7.34a23.43 23.43 0 0 1-12.28 3.05h-18.49c-.34 0-.5.12-.5.37v20.56c0 .84-.73 1.26-2.17 1.26s-2.07-.42-2.07-1.26V152c0-.85.71-1.27 2.12-1.27H703a23.46 23.46 0 0 1 12.25 3q5.09 3.06 5.09 7.35zm-4.24 0v-3.93q0-3.27-3.85-5.57a17.73 17.73 0 0 0-9.23-2.3h-18.56c-.34 0-.5.12-.5.37v18.93c0 .24.16.36.5.36H703a17.73 17.73 0 0 0 9.23-2.3q3.86-2.29 3.86-5.56zm51.7 31.33c0 .84-.72 1.26-2.17 1.26s-2.06-.42-2.06-1.26V152c0-.85.68-1.27 2.06-1.27s2.17.42 2.17 1.27zm90.8-.33c.4.83-.11 1.37-1.52 1.62s-2.24-.05-2.64-.9l-4.24-8.5c-.07-.24-.31-.36-.71-.36h-29.61c-.4 0-.64.11-.71.34l-4.16 8.48c-.39.85-1.25 1.16-2.57.91s-1.89-.79-1.49-1.62l21.77-44.32a2 2 0 0 1 2-1 2.2 2.2 0 0 1 2.12.91zm-9.94-11L835 157a.58.58 0 0 0-.4-.12.43.43 0 0 0-.27.1l-13.62 27.93c-.06.25.07.37.41.37h27.09c.38.01.51-.1.44-.34z"/></g></g></svg>