<?xml version="1.0" encoding="utf-8"?><svg xmlns="http://www.w3.org/2000/svg" viewBox="0 0 48 48"><path d="M27 38C9.1 38 5.2 33.2 3.6 31.1c-.4-.4-.6-1-.6-1.6C3 28.1 4.1 27 5.5 27c.9 0 3.5 0 3.5-4.9v-.6C9 12.4 17.1 5 27 5s18 7.4 18 16.5S36.9 38 27 38z" fill="#37474f"/><path d="M27 36c8.8 0 16-6.5 16-14.5S35.8 7 27 7s-16 6.5-16 14.5v.6c0 6.2-3.8 6.9-5.5 6.9-.3 0-.5.2-.5.5 0 .1 0 .2.1.3C6.6 31.7 10 36 27 36z" fill="#eceff1"/><circle cx="32" cy="18" r="2" fill="#37474f"/><circle cx="22" cy="18" r="2" fill="#37474f"/><path d="M27 29c-4.8 0-6.7-3.5-7-5.3-.1-.5.3-1.1.8-1.2.5-.1 1.1.3 1.2.8 0 .1.7 3.7 5 3.7s5-3.5 5-3.7c.1-.5.6-.9 1.2-.8.5.1.9.6.8 1.1-.3 1.9-2.2 5.4-7 5.4z" fill="#37474f"/><circle cx="16.5" cy="38.5" r="4.5" fill="#37474f"/><circle cx="16.5" cy="38.5" r="1.5" fill="#607d8b"/><circle cx="32.5" cy="38.5" r="4.5" fill="#37474f"/><circle cx="32.5" cy="38.5" r="1.5" fill="#607d8b"/></svg>